# xmcd
#
# Track frame offsets:
#	150
#	9479
#	22119
#	33378
#	40703
#	52968
#	65148
#	73868
#	85403
#	98243
#
# Disc length: 1509 seconds
#
# Revision: 1
# Processed by: cddbd v1.5PL3 Copyright (c) Steve Scherf et al.
# Submitted via: audiograbber 1.82.02
#
DISCID=8405e30a
DTITLE=Luis Aguilar - Morenita Mia
DYEAR=1900
DGENRE=Ranchero
TTITLE0=Deuda
TTITLE1=Morenita Mia
TTITLE2=Cuando Vivas Conmigo
TTITLE3=Que Padre es la Vida
TTITLE4=Una Luna Para Ti
TTITLE5=Presentimiento
TTITLE6=El Bravero
TTITLE7=Por Tus Ojos
TTITLE8=La Llorona
TTITLE9=Corazón, Buenas Noches
EXTD=
EXTT0=
EXTT1=
EXTT2=
EXTT3=
EXTT4=
EXTT5=
EXTT6=
EXTT7=
EXTT8=
EXTT9=
PLAYORDER=
